# File units = meters
mtllib axisy.mtl
g Part 2
usemtl 0.647059_0.647059_0.647059_0.000000_0.000000
o mesh0
v -0.000537426 0.0125 0.00244155 
v 0 0.0125 0.0025 
v 0 -0.0125 0.0025 
v -0.00104972 0.0125 0.00226894 
v -0.000537426 -0.0125 0.00244155 
v -0.00151294 0.0125 0.00199023 
v -0.00104972 -0.0125 0.00226894 
v -0.00190541 0.0125 0.00161847 
v -0.00151294 -0.0125 0.00199023 
v -0.00220878 0.0125 0.00117102 
v -0.00190541 -0.0125 0.00161847 
v -0.00240887 0.0125 0.000668821 
v -0.00220878 -0.0125 0.00117102 
v -0.00249633 0.0125 0.000135347 
v -0.00240887 -0.0125 0.000668821 
v -0.00246707 0.0125 -0.000404455 
v -0.00249633 -0.0125 0.000135347 
v -0.00232244 0.0125 -0.000925345 
v -0.00246707 -0.0125 -0.000404455 
v -0.00206922 0.0125 -0.00140297 
v -0.00232244 -0.0125 -0.000925345 
v -0.00171925 0.0125 -0.00181499 
v -0.00206922 -0.0125 -0.00140297 
v -0.00128888 0.0125 -0.00214214 
v -0.00171925 -0.0125 -0.00181499 
v -0.000798254 0.0125 -0.00236913 
v -0.00128888 -0.0125 -0.00214214 
v -0.000270298 0.0125 -0.00248534 
v -0.000798254 -0.0125 -0.00236913 
v 0.000270298 0.0125 -0.00248534 
v 9.18485e-19 0.0125 -0.0025 
v 3.06162e-19 -0.0125 -0.0025 
v -0.000270298 -0.0125 -0.00248534 
v 0.000798254 0.0125 -0.00236913 
v 0.000270298 -0.0125 -0.00248534 
v 0.00128888 0.0125 -0.00214214 
v 0.000798254 -0.0125 -0.00236913 
v 0.00171925 0.0125 -0.00181499 
v 0.00128888 -0.0125 -0.00214214 
v 0.00206922 0.0125 -0.00140297 
v 0.00171925 -0.0125 -0.00181499 
v 0.00232244 0.0125 -0.000925345 
v 0.00206922 -0.0125 -0.00140297 
v 0.00246707 0.0125 -0.000404455 
v 0.00232244 -0.0125 -0.000925345 
v 0.00249633 0.0125 0.000135347 
v 0.00246707 -0.0125 -0.000404455 
v 0.00240887 0.0125 0.000668821 
v 0.00249633 -0.0125 0.000135347 
v 0.00220878 0.0125 0.00117102 
v 0.00240887 -0.0125 0.000668821 
v 0.00190541 0.0125 0.00161847 
v 0.00220878 -0.0125 0.00117102 
v 0.00151294 0.0125 0.00199023 
v 0.00190541 -0.0125 0.00161847 
v 0.00104972 0.0125 0.00226894 
v 0.00151294 -0.0125 0.00199023 
v 0.000537426 0.0125 0.00244155 
v 0.00104972 -0.0125 0.00226894 
v 0.000537426 -0.0125 0.00244155 
vn 0.21497 0 -0.976621 
vn 2.44929e-16 0 -1 
vn 2.44929e-16 0 -1 
vn 0.419889 0 -0.907575 
vn 0.21497 0 -0.976621 
vn 0.605174 0 -0.796093 
vn 0.419889 0 -0.907575 
vn 0.762162 0 -0.647386 
vn 0.605174 0 -0.796093 
vn 0.883512 0 -0.468408 
vn 0.762162 0 -0.647386 
vn 0.96355 0 -0.267528 
vn 0.883512 0 -0.468408 
vn 0.998533 0 -0.0541389 
vn 0.96355 0 -0.267528 
vn 0.986827 0 0.161782 
vn 0.998533 0 -0.0541389 
vn 0.928977 0 0.370138 
vn 0.986827 0 0.161782 
vn 0.827689 0 0.561187 
vn 0.928977 0 0.370138 
vn 0.687699 0 0.725995 
vn 0.827689 0 0.561187 
vn 0.515554 0 0.856857 
vn 0.687699 0 0.725995 
vn 0.319302 0 0.947653 
vn 0.515554 0 0.856857 
vn 0.108119 0 0.994138 
vn 0.319302 0 0.947653 
vn -0.108119 0 0.994138 
vn -3.67394e-16 0 1 
vn -3.67394e-16 0 1 
vn 0.108119 0 0.994138 
vn -0.319302 0 0.947653 
vn -0.108119 0 0.994138 
vn -0.515554 0 0.856857 
vn -0.319302 0 0.947653 
vn -0.687699 0 0.725995 
vn -0.515554 0 0.856857 
vn -0.827689 0 0.561187 
vn -0.687699 0 0.725995 
vn -0.928977 0 0.370138 
vn -0.827689 0 0.561187 
vn -0.986827 0 0.161782 
vn -0.928977 0 0.370138 
vn -0.998533 0 -0.0541389 
vn -0.986827 0 0.161782 
vn -0.96355 0 -0.267528 
vn -0.998533 0 -0.0541389 
vn -0.883512 0 -0.468408 
vn -0.96355 0 -0.267528 
vn -0.762162 0 -0.647386 
vn -0.883512 0 -0.468408 
vn -0.605174 0 -0.796093 
vn -0.762162 0 -0.647386 
vn -0.419889 0 -0.907575 
vn -0.605174 0 -0.796093 
vn -0.21497 0 -0.976621 
vn -0.419889 0 -0.907575 
vn -0.21497 0 -0.976621 
f 1//1 2//2 3//3 
f 4//4 1//1 5//5 
f 6//6 4//4 7//7 
f 8//8 6//6 9//9 
f 10//10 8//8 11//11 
f 12//12 10//10 13//13 
f 14//14 12//12 15//15 
f 16//16 14//14 17//17 
f 18//18 16//16 19//19 
f 20//20 18//18 21//21 
f 22//22 20//20 23//23 
f 24//24 22//22 25//25 
f 26//26 24//24 27//27 
f 28//28 26//26 29//29 
f 30//30 31//31 32//32 
f 33//33 32//32 31//31 
f 31//31 28//28 33//33 
f 34//34 30//30 35//35 
f 36//36 34//34 37//37 
f 38//38 36//36 39//39 
f 40//40 38//38 41//41 
f 42//42 40//40 43//43 
f 44//44 42//42 45//45 
f 46//46 44//44 47//47 
f 48//48 46//46 49//49 
f 50//50 48//48 51//51 
f 52//52 50//50 53//53 
f 54//54 52//52 55//55 
f 56//56 54//54 57//57 
f 58//58 56//56 59//59 
f 2//2 58//58 60//60 
f 60//60 3//3 2//2 
f 59//59 60//60 58//58 
f 57//57 59//59 56//56 
f 55//55 57//57 54//54 
f 53//53 55//55 52//52 
f 51//51 53//53 50//50 
f 49//49 51//51 48//48 
f 47//47 49//49 46//46 
f 45//45 47//47 44//44 
f 43//43 45//45 42//42 
f 41//41 43//43 40//40 
f 39//39 41//41 38//38 
f 37//37 39//39 36//36 
f 35//35 37//37 34//34 
f 32//32 35//35 30//30 
f 29//29 33//33 28//28 
f 27//27 29//29 26//26 
f 25//25 27//27 24//24 
f 23//23 25//25 22//22 
f 21//21 23//23 20//20 
f 19//19 21//21 18//18 
f 17//17 19//19 16//16 
f 15//15 17//17 14//14 
f 13//13 15//15 12//12 
f 11//11 13//13 10//10 
f 9//9 11//11 8//8 
f 7//7 9//9 6//6 
f 5//5 7//7 4//4 
f 3//3 5//5 1//1 
o mesh1
v 0.015 -0.0125 -0.01 
v 0.000798254 -0.0125 -0.00236913 
v 0.000270298 -0.0125 -0.00248534 
v 0.00206922 -0.0125 -0.00140297 
v 0.00171925 -0.0125 -0.00181499 
v 0.015 -0.0125 0.01 
v 0.00249633 -0.0125 0.000135347 
v 0.00190541 -0.0125 0.00161847 
v 0.00220878 -0.0125 0.00117102 
v 0.00128888 -0.0125 -0.00214214 
v 0.00232244 -0.0125 -0.000925345 
v 0.00240887 -0.0125 0.000668821 
v 0.00151294 -0.0125 0.00199023 
v 0.000537426 -0.0125 0.00244155 
v 0.00104972 -0.0125 0.00226894 
v -0.015 -0.0125 0.01 
v 0 -0.0125 0.0025 
v 0.00246707 -0.0125 -0.000404455 
v -0.000537426 -0.0125 0.00244155 
v -0.00151294 -0.0125 0.00199023 
v -0.00104972 -0.0125 0.00226894 
v -0.015 -0.0125 -0.01 
v -0.00246707 -0.0125 -0.000404455 
v -0.00249633 -0.0125 0.000135347 
v -0.00171925 -0.0125 -0.00181499 
v -0.00206922 -0.0125 -0.00140297 
v -0.00190541 -0.0125 0.00161847 
v -0.00240887 -0.0125 0.000668821 
v -0.00232244 -0.0125 -0.000925345 
v -0.00128888 -0.0125 -0.00214214 
v -0.00220878 -0.0125 0.00117102 
v -0.000798254 -0.0125 -0.00236913 
v 3.06162e-19 -0.0125 -0.0025 
v -0.000270298 -0.0125 -0.00248534 
vn 0 -1 0 
vn 0 -1 0 
vn 0 -1 0 
vn 0 -1 0 
vn 0 -1 0 
vn 0 -1 0 
vn 0 -1 0 
vn 0 -1 0 
vn 0 -1 0 
vn 0 -1 0 
vn 0 -1 0 
vn 0 -1 0 
vn 0 -1 0 
vn 0 -1 0 
vn 0 -1 0 
vn 0 -1 0 
vn 0 -1 0 
vn 0 -1 0 
vn 0 -1 0 
vn 0 -1 0 
vn 0 -1 0 
vn 0 -1 0 
vn 0 -1 0 
vn 0 -1 0 
vn 0 -1 0 
vn 0 -1 0 
vn 0 -1 0 
vn 0 -1 0 
vn 0 -1 0 
vn 0 -1 0 
vn 0 -1 0 
vn 0 -1 0 
vn 0 -1 0 
vn 0 -1 0 
f 61//61 62//62 63//63 
f 61//61 64//64 65//65 
f 61//61 66//66 67//67 
f 66//66 68//68 69//69 
f 61//61 70//70 62//62 
f 61//61 71//71 64//64 
f 66//66 72//72 67//67 
f 66//66 73//73 68//68 
f 66//66 74//74 75//75 
f 66//66 76//76 77//77 
f 65//65 70//70 61//61 
f 67//67 78//78 61//61 
f 75//75 73//73 66//66 
f 76//76 79//79 77//77 
f 76//76 80//80 81//81 
f 82//82 83//83 84//84 
f 82//82 85//85 86//86 
f 78//78 71//71 61//61 
f 77//77 74//74 66//66 
f 76//76 87//87 80//80 
f 76//76 84//84 88//88 
f 82//82 89//89 83//83 
f 82//82 90//90 85//85 
f 69//69 72//72 66//66 
f 76//76 91//91 87//87 
f 84//84 76//76 82//82 
f 82//82 92//92 90//90 
f 81//81 79//79 76//76 
f 86//86 89//89 82//82 
f 82//82 61//61 93//93 
f 88//88 91//91 76//76 
f 93//93 94//94 82//82 
f 94//94 92//92 82//82 
f 63//63 93//93 61//61 
o mesh2
v 0.015 0.0125 0.01 
v 0.00151294 0.0125 0.00199023 
v 0.00104972 0.0125 0.00226894 
v 0.000537426 0.0125 0.00244155 
v 0.015 0.0125 -0.01 
v 0.00246707 0.0125 -0.000404455 
v 0.00249633 0.0125 0.000135347 
v 0.00190541 0.0125 0.00161847 
v 0.00240887 0.0125 0.000668821 
v 0.00220878 0.0125 0.00117102 
v 0.00232244 0.0125 -0.000925345 
v 0.00128888 0.0125 -0.00214214 
v 0.00171925 0.0125 -0.00181499 
v -0.015 0.0125 -0.01 
v -0.000270298 0.0125 -0.00248534 
v 9.18485e-19 0.0125 -0.0025 
v 0.00206922 0.0125 -0.00140297 
v -0.015 0.0125 0.01 
v -0.00249633 0.0125 0.000135347 
v 0.000270298 0.0125 -0.00248534 
v -0.00171925 0.0125 -0.00181499 
v -0.00128888 0.0125 -0.00214214 
v -0.00232244 0.0125 -0.000925345 
v -0.00206922 0.0125 -0.00140297 
v -0.00246707 0.0125 -0.000404455 
v -0.00220878 0.0125 0.00117102 
v -0.00240887 0.0125 0.000668821 
v 0.000798254 0.0125 -0.00236913 
v -0.000798254 0.0125 -0.00236913 
v -0.00151294 0.0125 0.00199023 
v -0.00190541 0.0125 0.00161847 
v -0.000537426 0.0125 0.00244155 
v -0.00104972 0.0125 0.00226894 
v 0 0.0125 0.0025 
vn 0 1 0 
vn 0 1 0 
vn 0 1 0 
vn 0 1 0 
vn 0 1 0 
vn 0 1 0 
vn 0 1 0 
vn 0 1 0 
vn 0 1 0 
vn 0 1 0 
vn 0 1 0 
vn 0 1 0 
vn 0 1 0 
vn 0 1 0 
vn 0 1 0 
vn 0 1 0 
vn 0 1 0 
vn 0 1 0 
vn 0 1 0 
vn 0 1 0 
vn 0 1 0 
vn 0 1 0 
vn 0 1 0 
vn 0 1 0 
vn 0 1 0 
vn 0 1 0 
vn 0 1 0 
vn 0 1 0 
vn 0 1 0 
vn 0 1 0 
vn 0 1 0 
vn 0 1 0 
vn 0 1 0 
vn 0 1 0 
f 95//95 96//96 97//97 
f 97//97 98//98 95//95 
f 99//99 100//100 101//101 
f 95//95 102//102 96//96 
f 95//95 103//103 104//104 
f 101//101 95//95 99//99 
f 104//104 102//102 95//95 
f 99//99 105//105 100//100 
f 99//99 106//106 107//107 
f 108//108 109//109 110//110 
f 101//101 103//103 95//95 
f 107//107 111//111 99//99 
f 110//110 99//99 108//108 
f 108//108 112//112 113//113 
f 111//111 105//105 99//99 
f 110//110 114//114 99//99 
f 108//108 115//115 116//116 
f 108//108 117//117 118//118 
f 113//113 119//119 108//108 
f 112//112 120//120 121//121 
f 99//99 122//122 106//106 
f 108//108 123//123 109//109 
f 118//118 115//115 108//108 
f 121//121 113//113 112//112 
f 114//114 122//122 99//99 
f 119//119 117//117 108//108 
f 112//112 124//124 125//125 
f 112//112 126//126 127//127 
f 116//116 123//123 108//108 
f 127//127 124//124 112//112 
f 125//125 120//120 112//112 
f 112//112 95//95 128//128 
f 128//128 126//126 112//112 
f 98//98 128//128 95//95 
o mesh3
v 0.015 -0.0125 0.01 
v 0.015 0.0125 0.01 
v -0.015 0.0125 0.01 
v -0.015 -0.0125 0.01 
vn 0 0 1 
vn 0 0 1 
vn 0 0 1 
vn 0 0 1 
f 129//129 130//130 131//131 
f 131//131 132//132 129//129 
o mesh4
v -0.015 -0.0125 0.01 
v -0.015 0.0125 0.01 
v -0.015 0.0125 -0.01 
v -0.015 -0.0125 -0.01 
vn -1 0 2.60209e-16 
vn -1 0 2.60209e-16 
vn -1 0 2.60209e-16 
vn -1 0 2.60209e-16 
f 133//133 134//134 135//135 
f 135//135 136//136 133//133 
o mesh5
v -0.015 -0.0125 -0.01 
v -0.015 0.0125 -0.01 
v 0.015 0.0125 -0.01 
v 0.015 -0.0125 -0.01 
vn 0 0 -1 
vn 0 0 -1 
vn 0 0 -1 
vn 0 0 -1 
f 137//137 138//138 139//139 
f 139//139 140//140 137//137 
o mesh6
v 0.015 -0.0125 -0.01 
v 0.015 0.0125 -0.01 
v 0.015 0.0125 0.01 
v 0.015 -0.0125 0.01 
vn 1 0 -2.60209e-16 
vn 1 0 -2.60209e-16 
vn 1 0 -2.60209e-16 
vn 1 0 -2.60209e-16 
f 141//141 142//142 143//143 
f 143//143 144//144 141//141 
